<?xml version="1.0" standalone="no"?><!DOCTYPE svg PUBLIC "-//W3C//DTD SVG 1.1//EN" "http://www.w3.org/Graphics/SVG/1.1/DTD/svg11.dtd"><svg t="1598925023453" class="icon" viewBox="0 0 1024 1024" version="1.1" xmlns="http://www.w3.org/2000/svg" p-id="2540" xmlns:xlink="http://www.w3.org/1999/xlink" width="16" height="16"><defs><style type="text/css"></style></defs><path d="M318.106559 695.141524h0.051c20.991974 20.990974 55.039931 20.990974 76.031904 0l588.593259-588.542258c21.042973-21.042973 21.042973-55.19393 0-76.236904l-0.154-0.154a53.759932 53.759932 0 0 0-76.030904 0.154L318.106559 618.90462a53.964932 53.964932 0 0 0 0 76.236904z m652.029179-264.037667h-0.255c-29.644963 0-53.657932 24.01197-53.657932 53.605932V916.169246H107.777824V107.623264l431.409457 0.204h0.051a53.759932 53.759932 0 0 0 53.606932-53.963932v-0.205c0.05-29.644963-24.01297-53.656932-53.657932-53.656932H53.557893A53.349933 53.349933 0 0 0 0.00096 53.607332v916.834845a53.299933 53.299933 0 0 0 53.605932 53.554933h916.835845a53.400933 53.400933 0 0 0 53.554933-53.656932v-485.579389a53.759932 53.759932 0 0 0-53.861932-53.605932z" p-id="2541" fill="#8b8b8b"></path></svg>